<svg width="400" height="400" viewBox="0 0 400 400" fill="none" xmlns="http://www.w3.org/2000/svg">
<g clip-path="url(#clip0_18_3)">
<path d="M399.5 0H-0.5V400H399.5V0Z" fill="url(#paint0_linear_18_3)"/>
<path opacity="0.4" d="M199.5 134.375C204.137 134.375 208.475 136.66 211.098 140.484L286.098 249.859C290.49 256.265 288.858 265.018 282.453 269.41C276.048 273.802 267.295 272.171 262.902 265.766L199.5 173.304L136.098 265.766C131.705 272.171 122.952 273.802 116.547 269.41C110.142 265.018 108.51 256.265 112.902 249.859L187.902 140.484L188.153 140.131C190.796 136.52 195.008 134.375 199.5 134.375Z" fill="url(#paint1_linear_18_3)"/>
<path opacity="0.7" d="M199.5 131.25C203.588 131.25 207.417 133.249 209.755 136.603L281.63 239.728C285.577 245.391 284.186 253.182 278.522 257.13C272.859 261.077 265.068 259.686 261.12 254.022L199.5 165.61L137.88 254.022C133.932 259.686 126.141 261.077 120.478 257.13C114.814 253.182 113.423 245.391 117.37 239.728L189.245 136.603L189.469 136.292C191.822 133.126 195.54 131.25 199.5 131.25Z" fill="url(#paint2_linear_18_3)"/>
<path d="M199.5 129.688C203.044 129.688 206.369 131.405 208.42 134.295L277.17 231.17C280.666 236.096 279.506 242.924 274.58 246.42C269.654 249.916 262.826 248.756 259.33 243.83L199.5 159.523L139.67 243.83C136.174 248.756 129.346 249.916 124.42 246.42C119.494 242.924 118.334 236.096 121.83 231.17L190.58 134.295L190.776 134.027C192.839 131.299 196.067 129.688 199.5 129.688Z" fill="white"/>
</g>
<defs>
<linearGradient id="paint0_linear_18_3" x1="-0.5" y1="400" x2="399.5" y2="0" gradientUnits="userSpaceOnUse">
<stop stop-color="#D946EF"/>
<stop offset="1" stop-color="#60A5FA"/>
</linearGradient>
<linearGradient id="paint1_linear_18_3" x1="124.5" y1="257.812" x2="124.5" y2="148.437" gradientUnits="userSpaceOnUse">
<stop stop-color="white"/>
<stop offset="1" stop-color="#60A5FA"/>
</linearGradient>
<linearGradient id="paint2_linear_18_3" x1="127.625" y1="246.875" x2="127.625" y2="143.75" gradientUnits="userSpaceOnUse">
<stop stop-color="white"/>
<stop offset="1" stop-color="#60A5FA"/>
</linearGradient>
<clipPath id="clip0_18_3">
<path d="M-0.5 58C-0.5 25.9675 25.4675 0 57.5 0H341.5C373.533 0 399.5 25.9675 399.5 58V342C399.5 374.033 373.533 400 341.5 400H57.5C25.4675 400 -0.5 374.033 -0.5 342V58Z" fill="white"/>
</clipPath>
</defs>
</svg>
