<svg width="179" height="143" viewBox="0 0 179 143" fill="none" xmlns="http://www.w3.org/2000/svg">
<path opacity="0.4" d="M89.0638 4.6875C93.7004 4.6875 98.0392 6.97298 100.661 10.7969L175.661 120.172C180.054 126.577 178.422 135.33 172.017 139.723C165.612 144.115 156.858 142.483 152.466 136.078L89.0638 43.6162L25.6614 136.078C21.2692 142.483 12.5158 144.115 6.11067 139.723C-0.294343 135.33 -1.92598 126.577 2.46613 120.172L77.4661 10.7969L77.7171 10.4434C80.36 6.83268 84.5719 4.6875 89.0638 4.6875Z" fill="url(#paint0_linear_18_29)"/>
<path opacity="0.7" d="M89.0638 1.5625C93.1517 1.5625 96.9812 3.56137 99.3187 6.91504L171.194 110.04C175.141 115.704 173.75 123.495 168.086 127.442C162.423 131.39 154.631 129.999 150.684 124.335L89.0638 35.9229L27.4437 124.335C23.4963 129.999 15.705 131.39 10.0413 127.442C4.37773 123.495 2.98652 115.704 6.93391 110.04L78.8089 6.91504L79.0325 6.60449C81.3861 3.43836 85.1037 1.5625 89.0638 1.5625Z" fill="url(#paint1_linear_18_29)"/>
<path d="M89.0638 0C92.6079 0 95.9326 1.7172 97.9837 4.60742L166.734 101.482C170.23 106.409 169.07 113.236 164.144 116.732C159.218 120.228 152.39 119.069 148.894 114.143L89.0638 29.8359L29.2337 114.143C25.7378 119.069 18.9099 120.228 13.9837 116.732C9.05759 113.236 7.89799 106.409 11.3939 101.482L80.1439 4.60742L80.3402 4.33984C82.4033 1.61151 85.6305 0 89.0638 0Z" fill="white"/>
<defs>
<linearGradient id="paint0_linear_18_29" x1="14.0638" y1="128.125" x2="14.0638" y2="18.75" gradientUnits="userSpaceOnUse">
<stop stop-color="white"/>
<stop offset="1" stop-color="#60A5FA"/>
</linearGradient>
<linearGradient id="paint1_linear_18_29" x1="17.1888" y1="117.188" x2="17.1888" y2="14.0625" gradientUnits="userSpaceOnUse">
<stop stop-color="white"/>
<stop offset="1" stop-color="#60A5FA"/>
</linearGradient>
</defs>
</svg>
